<?xml version="1.0" standalone="no"?>
<!DOCTYPE svg PUBLIC "-//W3C//DTD SVG 20010904//EN"
 "http://www.w3.org/TR/2001/REC-SVG-20010904/DTD/svg10.dtd">
<svg version="1.0" xmlns="http://www.w3.org/2000/svg"
 width="1025.000000pt" height="1025.000000pt" viewBox="0 0 1025.000000 1025.000000"
 preserveAspectRatio="xMidYMid meet">
<metadata>
Created by potrace 1.14, written by Peter Selinger 2001-2017
</metadata>
<g transform="translate(0.000000,1025.000000) scale(0.100000,-0.100000)"
fill="#000000" stroke="none">
<path d="M5065 8794 c-215 -160 -442 -446 -580 -729 -118 -244 -184 -473 -220
-765 -9 -66 -9 -327 -1 -390 3 -29 -14 11 -48 110 l-53 155 -11 -50 c-41 -175
-60 -547 -39 -750 42 -401 150 -735 336 -1034 l49 -80 -47 34 c-49 35 -179
100 -186 94 -2 -3 12 -22 31 -44 166 -189 261 -470 309 -915 3 -30 8 -71 10
-90 7 -57 14 -148 20 -265 3 -60 7 -130 10 -155 2 -25 7 -72 10 -105 17 -175
83 -333 180 -432 l61 -63 91 0 90 0 -3 68 c-2 37 -6 105 -9 152 -21 343 -26
1308 -12 1985 11 524 16 771 22 1185 3 206 8 447 10 535 2 88 7 311 10 495 4
184 8 391 11 460 2 69 4 147 4 174 0 27 2 47 5 44 5 -5 10 -164 20 -633 3
-159 8 -378 10 -485 2 -107 7 -364 10 -570 3 -206 8 -460 10 -565 16 -757 20
-1051 20 -1575 0 -536 -4 -751 -21 -1080 -3 -58 -7 -124 -10 -147 l-5 -43 88
0 c88 0 88 0 129 38 147 134 215 319 239 657 5 77 8 113 20 255 3 36 8 76 10
90 2 14 7 54 10 90 4 36 8 72 10 80 2 8 7 40 10 70 10 89 55 289 82 370 54
161 128 292 217 389 30 33 31 33 6 26 -44 -13 -144 -66 -184 -98 -22 -17 -37
-27 -34 -21 93 150 143 240 180 325 205 468 264 980 172 1492 -9 48 -18 86
-20 84 -2 -2 -24 -66 -50 -143 -25 -76 -47 -140 -47 -141 -1 -1 -1 87 0 195 1
186 -3 243 -28 387 -82 469 -319 910 -661 1230 -47 44 -106 94 -130 112 l-44
32 -59 -45z"/>
<path d="M1175 5824 c-8 -21 -26 -74 -40 -118 -159 -526 -105 -1117 149 -1625
170 -340 413 -605 767 -837 192 -125 319 -193 918 -489 297 -148 326 -163 461
-243 488 -292 771 -629 871 -1040 17 -70 25 -47 29 83 10 317 -6 497 -66 767
-136 608 -458 1153 -919 1553 -44 39 -82 72 -85 75 -43 45 -401 306 -630 460
-283 190 -546 379 -654 470 -278 234 -453 421 -596 634 -56 84 -170 299 -170
322 0 29 -20 22 -35 -12z"/>
<path d="M9050 5849 c0 -7 -27 -65 -59 -130 -214 -427 -546 -752 -1271 -1244
-553 -376 -726 -509 -951 -734 -172 -173 -264 -285 -382 -467 -199 -308 -362
-720 -423 -1074 -4 -25 -8 -47 -9 -50 -1 -3 -5 -34 -9 -70 -5 -36 -11 -74 -13
-85 -8 -30 -10 -473 -3 -530 l6 -50 13 45 c99 348 249 577 529 810 205 171
409 291 947 555 204 100 422 210 485 245 560 308 852 591 1070 1035 97 197
181 466 205 655 3 25 9 77 14 115 9 71 6 408 -4 480 -4 33 -15 93 -40 215 -17
87 -85 290 -96 290 -5 0 -9 -5 -9 -11z"/>
<path d="M9995 3198 c-162 -134 -392 -244 -660 -313 -194 -50 -337 -76 -670
-121 -22 -2 -65 -9 -95 -14 -30 -5 -73 -11 -95 -15 -145 -20 -399 -78 -510
-116 -540 -187 -977 -585 -1205 -1099 l-51 -115 78 77 c124 123 202 176 352
239 75 31 235 74 321 84 30 4 62 9 70 10 59 11 261 18 605 20 220 2 418 5 440
8 22 4 67 9 99 12 164 16 345 62 478 120 462 203 824 685 883 1175 3 25 8 55
10 68 2 12 3 22 2 22 -1 0 -25 -19 -52 -42z"/>
<path d="M204 3221 c3 -4 8 -26 11 -47 2 -21 7 -56 10 -76 15 -110 87 -318
153 -438 254 -468 684 -756 1202 -805 41 -4 84 -9 95 -12 11 -2 209 -6 440 -8
375 -3 570 -9 615 -20 8 -2 40 -7 70 -10 78 -10 231 -51 319 -86 139 -55 240
-125 354 -243 l68 -71 -21 55 c-166 423 -512 806 -930 1028 -256 136 -518 208
-1005 277 -351 49 -438 64 -594 100 -266 63 -515 171 -679 295 -85 63 -122 85
-108 61z"/>
<path d="M4903 3010 l0 -190 56 -1 c58 0 358 0 376 1 7 0 10 64 9 183 -1 100
-2 185 -3 190 0 4 -99 7 -220 7 l-219 0 1 -190z"/>
<path d="M4890 2695 c0 -2 -33 -153 -74 -336 l-75 -332 50 -55 c111 -121 201
-276 237 -407 23 -85 22 -77 22 -121 0 -31 3 -35 23 -32 l22 3 1 270 c1 249 0
271 -17 283 -9 6 -23 28 -29 48 -11 32 -10 39 7 63 28 37 68 49 101 30 53 -30
61 -89 16 -132 l-24 -22 0 -272 0 -273 25 0 c22 0 25 4 25 38 1 142 112 366
267 536 36 39 41 50 34 73 -4 16 -39 166 -76 335 l-68 306 -234 0 c-128 -1
-233 -2 -233 -3z"/>
</g>
</svg>
